PathFileType	4	(X/Y/Z)	A:\Common\BMMB\PROJECTS\STRATO\DataSTRATO\DataSTRATO\0021~016 ID\0021~aa~ID 016\W8_STRATO_ID_16.trc
DataRate	CameraRate	NumFrames	NumMarkers	Units	OrigDataRate	OrigDataStartFrame	OrigNumFrames
250.00	250.00	9	18	mm	250.00	1	2481
Frame#	Time	r.should			l.should			c7			r.asis			l.asis			sacrum			r.bar1			l.bar1			r.knee1			l.knee1			r.bar2			r.mall			l.bar2			l.mall			r.met			r.heel			l.heel			l.met			
		X1	Y1	Z1	X2	Y2	Z2	X3	Y3	Z3	X4	Y4	Z4	X5	Y5	Z5	X6	Y6	Z6	X7	Y7	Z7	X8	Y8	Z8	X9	Y9	Z9	X10	Y10	Z10	X11	Y11	Z11	X12	Y12	Z12	X13	Y13	Z13	X14	Y14	Z14	X15	Y15	Z15	X16	Y16	Z16	X17	Y17	Z17	X18	Y18	Z18	

1164	4.656000	217.078418	1327.990532	1878.093004	-77.424429	1300.016761	1885.600686	75.575411	1375.581741	1961.305141	235.494763	865.959942	1790.459275	-2.444238	859.187007	1774.974465	96.402138	930.933237	2007.189035	307.518482	782.680154	1892.983198	-89.495517	772.755563	1841.340184	232.440218	439.652860	1967.411518	-49.313053	463.676006	1745.597243	216.231182	386.961609	1970.891476	192.145586	78.229442	2128.464222	-52.625243	424.931884	1732.608914	-35.170518	65.251857	1612.846851	172.996700	38.274325	1995.990753	145.002276	56.141481	2192.492723	13.440942	26.039671	1661.601305	-11.199778	84.953964	1473.851800	
1165	4.660000	216.483921	1327.289104	1873.607397	-77.987552	1299.091101	1880.922556	74.895427	1374.717116	1956.727862	234.814942	864.812613	1785.691977	-2.595435	858.465433	1769.850850	95.415123	929.983437	2002.502918	306.905895	781.786859	1888.675451	-90.162233	772.232175	1836.067438	231.801555	438.738644	1963.469505	-49.906533	464.148819	1740.392208	215.614662	386.004150	1967.181444	192.107752	78.904636	2128.496170	-52.769929	424.402803	1727.355242	-35.400543	64.122722	1609.342456	172.961667	38.271252	1995.950818	144.763708	57.344958	2192.262173	13.022195	26.366459	1658.952236	-11.245097	83.241090	1470.378160	
1166	4.664000	215.914309	1326.578140	1869.166493	-78.581266	1298.174620	1876.230001	74.195087	1373.862267	1952.145696	234.395161	863.798499	1781.130791	-2.810309	857.711732	1764.652729	94.445609	929.069102	1997.763276	306.244314	780.837417	1884.297013	-90.844765	771.662891	1830.722451	231.184766	437.908709	1959.475040	-50.010350	464.089274	1734.589934	215.044886	385.059595	1963.461995	191.846460	79.637446	2128.104687	-52.871078	423.766881	1722.017407	-35.529323	62.812909	1606.458426	172.929525	38.274378	1995.881557	144.468606	58.600068	2191.986799	12.733446	26.623227	1656.984448	-11.168723	81.021793	1467.548251	
1167	4.668000	215.324223	1325.828671	1864.725590	-79.151712	1297.264576	1871.487617	73.469356	1373.001695	1947.564244	234.157011	862.934947	1776.727080	-3.067086	857.006073	1759.402275	93.480654	928.206325	1992.996097	305.576026	779.885530	1879.866600	-91.557130	771.081805	1825.368643	230.515122	437.054783	1955.313683	-49.951818	463.869542	1728.610516	214.479983	384.122968	1959.690571	191.523880	80.397278	2127.589464	-52.956972	423.083961	1716.673613	-35.433501	61.259419	1604.259849	172.916755	38.285594	1995.831490	144.106731	59.951562	2191.669941	12.819326	26.565108	1655.703306	-11.070616	77.937044	1465.303779	
1168	4.672000	214.716762	1325.082302	1860.284090	-79.729043	1296.360850	1866.739511	72.730467	1372.138858	1943.014383	233.915582	862.062633	1772.351861	-3.491051	856.519401	1754.130840	92.533045	927.432537	1988.265753	304.864407	778.905749	1875.322819	-92.202626	770.525813	1819.940209	229.857102	436.231852	1951.126099	-49.845207	463.633060	1722.530723	213.913888	383.216977	1955.851674	191.225260	81.190690	2127.034664	-53.092606	422.315687	1711.336493	-35.014637	59.459627	1602.726936	172.897339	38.271569	1995.741367	143.671647	61.382048	2191.275835	13.294839	26.711389	1655.021429	-11.074517	73.657364	1463.638067	
1169	4.676000	214.130014	1324.346662	1855.845451	-80.344900	1295.464039	1862.028718	71.979366	1371.268749	1938.475609	233.638704	861.202896	1767.973900	-4.080683	856.359303	1748.824120	91.608815	926.736653	1983.592510	304.061115	777.851462	1870.681524	-92.895433	770.003378	1814.474583	229.191795	435.376555	1946.869135	-49.597606	463.318467	1716.264606	213.313907	382.268488	1951.931953	190.922067	82.079366	2126.445532	-53.151622	421.460152	1705.889702	-34.445584	57.599418	1601.611972	172.889441	38.260438	1995.621204	143.278122	62.910646	2190.826654	13.927061	27.007561	1654.574156	-11.234422	68.446189	1462.460041	
1170	4.680000	213.542566	1323.626161	1851.416230	-80.954492	1294.575691	1857.267737	71.231909	1370.446920	1933.952808	233.239442	860.316157	1763.505936	-4.415342	855.902314	1743.600368	90.704568	926.121414	1978.996992	303.223968	776.798129	1865.957260	-93.626738	769.608617	1808.971763	228.443369	434.568405	1942.516565	-49.687646	463.229477	1710.439444	212.657109	381.374538	1947.918296	190.657943	83.109409	2125.790596	-53.233165	420.700401	1700.579166	-33.853658	56.023221	1600.543976	172.861621	38.259238	1995.508909	142.975643	64.609602	2190.343380	14.406622	27.413359	1654.173136	-11.322164	63.298412	1461.434603	
1171	4.684000	212.958664	1322.933674	1846.987367	-81.577823	1293.742776	1852.489233	70.481293	1369.686365	1929.452538	232.874587	859.433711	1759.095907	-4.676331	855.490088	1738.456130	89.868553	925.615609	1974.455714	302.393764	775.745690	1861.152649	-94.324149	769.426942	1803.415656	227.651119	433.741421	1938.067675	-50.204691	463.338256	1705.057859	211.994752	380.503088	1943.866491	190.481186	84.297791	2125.077009	-53.325854	420.034200	1695.360422	-33.766940	55.888560	1600.259542	172.831476	38.233750	1995.401382	142.773733	66.450261	2189.816475	14.654458	27.868051	1653.676748	-11.064340	59.241399	1460.266232	
1172	4.688000	212.407738	1322.307587	1842.560649	-82.202531	1292.944670	1847.727776	69.741711	1368.981004	1924.991131	232.522458	858.640194	1754.747152	-4.924966	855.216742	1733.382821	89.120373	925.261199	1969.958544	301.560611	774.728596	1856.276274	-95.117822	769.687533	1798.018932	226.770610	432.907343	1933.458328	-50.084211	463.078618	1699.057460	211.258918	379.660457	1939.683914	190.360472	85.590526	2124.289274	-53.325407	419.531941	1690.214276	-33.575103	55.924319	1599.257231	172.785491	38.224660	1995.265484	142.662585	68.501778	2189.271450	14.760742	28.381795	1653.034925	-10.354429	56.497023	1459.031582	
